<svg width="48" height="48" viewBox="0 0 48 48" fill="none" xmlns="http://www.w3.org/2000/svg">
<g id="Group">
<g id="Group_2">
<path id="Path" fill-rule="evenodd" clip-rule="evenodd" d="M39.698 32.792C41.158 30.192 42 27.196 42 24C42 14.058 33.942 6 24 6C14.058 6 6 14.058 6 24C6 33.942 14.058 42 24 42C27.196 42 30.192 41.158 32.792 39.698L42 42L39.698 32.792Z" stroke="#009EA4" stroke-width="3.1764" stroke-linecap="round" stroke-linejoin="round"/>
<path id="Path_2" d="M23.6453 24.646C23.8413 24.45 24.1573 24.45 24.3533 24.646C24.5493 24.842 24.5493 25.158 24.3533 25.354C24.1573 25.55 23.8413 25.55 23.6453 25.354C23.4513 25.158 23.4513 24.842 23.6453 24.646" stroke="#009EA4" stroke-width="3" stroke-linecap="round" stroke-linejoin="round"/>
<path id="Path_3" d="M15.6453 24.646C15.8413 24.45 16.1573 24.45 16.3533 24.646C16.5493 24.842 16.5493 25.158 16.3533 25.354C16.1573 25.55 15.8413 25.55 15.6453 25.354C15.4513 25.158 15.4513 24.842 15.6453 24.646" stroke="#009EA4" stroke-width="3" stroke-linecap="round" stroke-linejoin="round"/>
<path id="Path_4" d="M31.6453 24.646C31.8413 24.45 32.1573 24.45 32.3533 24.646C32.5493 24.842 32.5493 25.158 32.3533 25.354C32.1573 25.55 31.8413 25.55 31.6453 25.354C31.4513 25.158 31.4513 24.842 31.6453 24.646" stroke="#009EA4" stroke-width="3" stroke-linecap="round" stroke-linejoin="round"/>
</g>
</g>
</svg>
