<svg width="48" height="48" viewBox="0 0 48 48" fill="none" xmlns="http://www.w3.org/2000/svg">
<g id="Group">
<g id="Group_2">
<path id="Path" fill-rule="evenodd" clip-rule="evenodd" d="M6 13.6V13.6C6 14.8 6.6 15.8 7.6 16.6L19.6 24.8C22.4 26.6 25.8 26.6 28.6 24.8L40.6 16.8C41.4 15.8 42 14.8 42 13.6V13.6C42 11.6 40.4 10 38.4 10H9.6C7.6 10 6 11.6 6 13.6Z" stroke="#009EA4" stroke-width="3" stroke-linecap="round" stroke-linejoin="round"/>
<path id="Path_2" d="M6 14V34C6 36.2 7.8 38 10 38H38C40.2 38 42 36.2 42 34V14" stroke="#009EA4" stroke-width="3" stroke-linecap="round" stroke-linejoin="round"/>
<path id="Path_3" d="M7.17578 36.824L19.3638 24.636" stroke="#009EA4" stroke-width="3" stroke-linecap="round" stroke-linejoin="round"/>
<path id="Path_4" d="M28.7188 24.72L40.8228 36.824" stroke="#009EA4" stroke-width="3" stroke-linecap="round" stroke-linejoin="round"/>
</g>
</g>
</svg>
