<svg width="48" height="48" viewBox="0 0 48 48" fill="none" xmlns="http://www.w3.org/2000/svg">
<g id="Group">
<path id="Path" fill-rule="evenodd" clip-rule="evenodd" d="M14.992 6H33.01C37.974 6 42 10.024 42 14.992V33.01C42 37.974 37.976 42 33.008 42H14.992C10.026 42 6 37.976 6 33.008V14.992C6 10.026 10.024 6 14.992 6V6Z" stroke="#009EA4" stroke-width="3" stroke-linecap="round" stroke-linejoin="round"/>
<path id="Path_2" d="M33.8974 13.426C33.5254 13.428 33.2234 13.73 33.2234 14.102C33.2234 14.474 33.5274 14.776 33.8994 14.776C34.2714 14.776 34.5734 14.474 34.5734 14.102C34.5754 13.728 34.2714 13.426 33.8974 13.426" stroke="#009EA4" stroke-width="3" stroke-linecap="round" stroke-linejoin="round"/>
<path id="Path_3" d="M29.092 18.9089C31.9037 21.7207 31.9037 26.2794 29.092 29.0912C26.2802 31.903 21.7214 31.903 18.9096 29.0912C16.0978 26.2794 16.0978 21.7207 18.9096 18.9089C21.7214 16.0971 26.2802 16.0971 29.092 18.9089" stroke="#009EA4" stroke-width="3" stroke-linecap="round" stroke-linejoin="round"/>
</g>
</svg>
