<svg width="48" height="48" viewBox="0 0 48 48" fill="none" xmlns="http://www.w3.org/2000/svg">
<g id="Group">
<path id="Path" d="M36.9961 14.5V7.5" stroke="#009EA4" stroke-width="3" stroke-linecap="round" stroke-linejoin="round"/>
<path id="Path_2" d="M33.5 11.002H40.5" stroke="#009EA4" stroke-width="3" stroke-linecap="round" stroke-linejoin="round"/>
<path id="Path_3" fill-rule="evenodd" clip-rule="evenodd" d="M22.2081 16.4568C22.5449 15.7739 23.2403 15.3416 24.0017 15.3416C24.7632 15.3416 25.4585 15.7739 25.7954 16.4568L27.0268 18.9531C27.3181 19.5435 27.8813 19.9528 28.5328 20.0475L31.2872 20.4478C32.0405 20.5573 32.6663 21.0849 32.9016 21.8087C33.1369 22.5326 32.9409 23.3273 32.396 23.8588L30.4023 25.8034C29.9312 26.2629 29.7163 26.9247 29.8276 27.5733L30.2981 30.316C30.4268 31.0663 30.1184 31.8247 29.5026 32.2722C28.8867 32.7197 28.0702 32.7787 27.3964 32.4246L24.9322 31.1295C24.3497 30.8233 23.6538 30.8233 23.0713 31.1295L20.6072 32.4246C19.9333 32.7788 19.1168 32.7197 18.501 32.2722C17.8851 31.8247 17.5767 31.0664 17.7054 30.3161L18.176 27.5733C18.2872 26.9248 18.0723 26.2629 17.6012 25.8035L15.6075 23.8588C15.0626 23.3274 14.8666 22.5327 15.1019 21.8088C15.3372 21.0849 15.9631 20.5574 16.7163 20.4479L19.4707 20.0476C20.1222 19.9529 20.6854 19.5436 20.9767 18.9532L22.2081 16.4568Z" stroke="#009EA4" stroke-width="3" stroke-linecap="round" stroke-linejoin="round"/>
<path id="Path_4" d="M28 6.47644C26.6893 6.16524 25.3472 6.00539 24 6C14.0589 6 6 14.0589 6 24C6 33.9411 14.0589 42 24 42C33.9411 42 42 33.9411 42 24C41.9946 22.6528 41.8348 21.3107 41.5236 20" stroke="#009EA4" stroke-width="3" stroke-linecap="round" stroke-linejoin="round"/>
</g>
</svg>
