<svg width="211" height="30" viewBox="0 0 211 30" fill="none" xmlns="http://www.w3.org/2000/svg">
<mask id="mask0_31_3086" style="mask-type:luminance" maskUnits="userSpaceOnUse" x="0" y="0" width="49" height="30">
<path d="M0 0.192871H48.1618V29.8072H0V0.192871Z" fill="white"/>
</mask>
<g mask="url(#mask0_31_3086)">
<path d="M0.678647 14.3803H3.96656V12.1824C3.96656 11.843 4.24676 11.5628 4.58609 11.5628C4.92285 11.5628 5.20563 11.843 5.20563 12.1824V14.3803H6.97169V11.0024C6.97169 10.6631 7.2519 10.3829 7.59123 10.3829C7.93056 10.3829 8.21076 10.6631 8.21076 11.0024V14.3803H9.9794V8.52428C9.9794 8.18495 10.2596 7.90218 10.5989 7.90218C10.9383 7.90218 11.2185 8.18495 11.2185 8.52428V14.3803H12.9871V5.55C12.9871 5.21067 13.2673 4.93046 13.6066 4.93046C13.9434 4.93046 14.2262 5.21067 14.2262 5.55V14.3803H15.9922V2.9973C15.9922 2.65797 16.275 2.37777 16.6118 2.37777C16.9511 2.37777 17.2313 2.65797 17.2313 2.9973V14.3803H18.9999V0.922758C18.9999 0.583428 19.2801 0.303223 19.6195 0.303223C19.9588 0.303223 20.239 0.583428 20.239 0.922758V14.3803H22.0076V2.9973C22.0076 2.65797 22.2879 2.37777 22.6272 2.37777C22.9665 2.37777 23.2467 2.65797 23.2467 2.9973V14.3803H25.0154V5.55C25.0154 5.21067 25.2956 4.93046 25.6349 4.93046C25.9716 4.93046 26.2544 5.21067 26.2544 5.55V14.3803H28.0205V10.0924C28.0205 9.75307 28.3033 9.47287 28.64 9.47287C28.9794 9.47287 29.2596 9.75307 29.2596 10.0924V14.3803H31.0282V7.6811C31.0282 7.34177 31.3084 7.06156 31.6477 7.06156C31.9871 7.06156 32.2673 7.34177 32.2673 7.6811V14.3803H34.0359V5.55C34.0359 5.21067 34.3161 4.93046 34.6554 4.93046C34.9948 4.93046 35.275 5.21067 35.275 5.55V14.3803H37.0436V7.6811C37.0436 7.34177 37.3238 7.06156 37.6631 7.06156C37.9999 7.06156 38.2827 7.34177 38.2827 7.6811V14.3803H40.0487V10.0924C40.0487 9.75307 40.3315 9.47287 40.6683 9.47287C41.0076 9.47287 41.2878 9.75307 41.2878 10.0924V14.3803H43.041V12.2646C43.041 11.9253 43.3212 11.6451 43.6605 11.6451C43.9973 11.6451 44.2801 11.9253 44.2801 12.2646V14.3803H47.5577C47.897 14.3803 48.1772 14.6605 48.1772 14.9998C48.1772 15.3392 47.897 15.6194 47.5577 15.6194H44.2801V17.7351C44.2801 18.0718 43.9973 18.3546 43.6605 18.3546C43.3212 18.3546 43.041 18.0718 43.041 17.7351V15.6194H41.2724V19.9073C41.2724 20.2466 40.9922 20.5268 40.6528 20.5268C40.3135 20.5268 40.0333 20.2466 40.0333 19.9073V15.6194H38.2647V22.3186C38.2647 22.6579 37.9845 22.9381 37.6451 22.9381C37.3058 22.9381 37.0256 22.6579 37.0256 22.3186V15.6194H35.257V24.4497C35.257 24.789 34.9768 25.0692 34.6374 25.0692C34.3007 25.0692 34.0179 24.789 34.0179 24.4497V15.6194H32.2518V22.3186C32.2518 22.6579 31.9691 22.9381 31.6323 22.9381C31.293 22.9381 31.0128 22.6579 31.0128 22.3186V15.6194H29.2441V19.9073C29.2441 20.2466 28.9639 20.5268 28.6246 20.5268C28.2853 20.5268 28.0051 20.2466 28.0051 19.9073V15.6194H26.2364V24.4497C26.2364 24.789 25.9562 25.0692 25.6169 25.0692C25.2776 25.0692 24.9974 24.789 24.9974 24.4497V15.6194H23.2313V27.0024C23.2313 27.3417 22.9485 27.6219 22.6092 27.6219C22.2724 27.6219 21.9897 27.3417 21.9897 27.0024V15.6194H20.2236V29.0769C20.2236 29.4163 19.9434 29.6965 19.6041 29.6965C19.2647 29.6965 18.9845 29.4163 18.9845 29.0769V15.6194H17.2159V27.0024C17.2159 27.3417 16.9357 27.6219 16.5963 27.6219C16.257 27.6219 15.9768 27.3417 15.9768 27.0024V15.6194H14.2082V24.4497C14.2082 24.789 13.928 25.0692 13.5886 25.0692C13.2519 25.0692 12.9691 24.789 12.9691 24.4497V15.6194H11.203V21.4754C11.203 21.8147 10.9203 22.0949 10.5835 22.0949C10.2442 22.0949 9.96397 21.8147 9.96397 21.4754V15.6194H8.19534V18.9973C8.19534 19.3366 7.91513 19.6168 7.5758 19.6168C7.23647 19.6168 6.95627 19.3366 6.95627 18.9973V15.6194H5.18763V17.8173C5.18763 18.1567 4.90743 18.4369 4.5681 18.4369C4.22877 18.4369 3.94856 18.1567 3.94856 17.8173V15.6194H0.668364C0.331604 15.6194 0.0488281 15.3392 0.0488281 14.9998C0.0488281 14.6605 0.339316 14.3803 0.678647 14.3803Z" fill="#E5E5E5"/>
</g>
<path d="M65.0019 22.1672C68.5366 22.1672 70.5314 20.3703 70.5314 17.5862C70.5314 14.2109 67.6471 13.5991 65.1407 13.0464C63.2461 12.6299 61.5674 12.2546 61.5674 10.7148C61.5674 9.47312 62.5931 8.76104 64.2127 8.76104C65.8116 8.76104 67.1947 9.47312 67.6085 11.2083H70.115C69.6214 8.0104 67.0559 6.60938 64.2512 6.60938C61.2718 6.60938 59.061 8.14922 59.061 10.9333C59.061 14.0335 61.7834 14.6248 64.1921 15.1389C66.187 15.5734 68.0224 15.9667 68.0224 17.7456C68.0224 19.2854 66.7988 20.0155 65.043 20.0155C63.3823 20.0155 61.588 19.3626 61.0944 17.1312H58.5469C58.9608 20.8433 62.0816 22.1672 65.0019 22.1672Z" fill="#E5E5E5"/>
<path d="M84.5088 21.9099V19.658H77.0461V15.4729H83.6785V13.2416H77.0461V9.09763H84.5088V6.8457H74.5371V21.9099H84.5088Z" fill="#E5E5E5"/>
<path d="M89.8782 21.9099L91.0041 18.6117H97.1044L98.2098 21.9099H100.816L95.4257 6.8457H92.6622L87.2715 21.9099H89.8782ZM94.0427 9.53207L96.3537 16.4215H91.7342L94.0427 9.53207Z" fill="#E5E5E5"/>
<path d="M112.641 15.3367C114.181 14.6452 115.109 13.2416 115.109 11.2493C115.109 8.1876 113.176 6.8457 110.35 6.8457H104.132V21.9099H106.641V15.7711H110.232L112.721 21.9099H115.425L112.641 15.3367ZM106.641 9.09763H110.016C111.695 9.09763 112.641 9.88683 112.641 11.329C112.641 12.7891 111.713 13.5783 110.016 13.5783H106.641V9.09763Z" fill="#E5E5E5"/>
<path d="M125.889 22.1672C129.503 22.1672 131.732 20.1929 132.187 17.1312H129.441C129.128 19.0078 127.745 19.9358 125.85 19.9358C122.868 19.9358 121.308 17.6248 121.308 14.3677C121.308 11.1312 122.868 8.84073 125.85 8.84073C127.745 8.84073 129.128 9.76875 129.441 11.3883H132.187C131.752 8.5451 129.503 6.60938 125.889 6.60938C120.974 6.60938 118.722 10.2418 118.722 14.3677C118.722 18.4937 120.974 22.1672 125.889 22.1672Z" fill="#E5E5E5"/>
<path d="M138.526 21.9099V15.4729H145.335V21.9099H147.844V6.8457H145.335V13.2416H138.526V6.8457H136.017V21.9099H138.526Z" fill="#E5E5E5"/>
<path d="M159.037 22.1672C162.652 22.1672 164.88 20.1929 165.335 17.1312H162.59C162.276 19.0078 160.893 19.9358 158.999 19.9358C156.017 19.9358 154.456 17.6248 154.456 14.3677C154.456 11.1312 156.017 8.84073 158.999 8.84073C160.893 8.84073 162.276 9.76875 162.59 11.3883H165.335C164.901 8.5451 162.652 6.60938 159.037 6.60938C154.122 6.60938 151.87 10.2418 151.87 14.3677C151.87 18.4937 154.122 22.1672 159.037 22.1672Z" fill="#E5E5E5"/>
<path d="M170.548 21.9099L171.674 18.6117H177.774L178.88 21.9099H181.486L176.096 6.8457H173.332L167.941 21.9099H170.548ZM174.713 9.53207L177.024 16.4215H172.404L174.713 9.53207Z" fill="#E5E5E5"/>
<path d="M190.605 22.1672C194.14 22.1672 196.135 20.3703 196.135 17.5862C196.135 14.2109 193.251 13.5991 190.744 13.0464C188.85 12.6299 187.171 12.2546 187.171 10.7148C187.171 9.47312 188.197 8.76104 189.816 8.76104C191.415 8.76104 192.798 9.47312 193.212 11.2083H195.718C195.225 8.0104 192.659 6.60938 189.855 6.60938C186.875 6.60938 184.665 8.14922 184.665 10.9333C184.665 14.0335 187.387 14.6248 189.796 15.1389C191.79 15.5734 193.626 15.9667 193.626 17.7456C193.626 19.2854 192.402 20.0155 190.647 20.0155C188.986 20.0155 187.192 19.3626 186.698 17.1312H184.15C184.564 20.8433 187.685 22.1672 190.605 22.1672Z" fill="#E5E5E5"/>
<path d="M206.223 21.9099V9.09763H211V6.8457H198.977V9.09763H203.714V21.9099H206.223Z" fill="#E5E5E5"/>
</svg>
