<svg width="48" height="48" viewBox="0 0 48 48" fill="none" xmlns="http://www.w3.org/2000/svg">
<g id="Group">
<path id="Path" fill-rule="evenodd" clip-rule="evenodd" d="M36.4083 11.524C33.1163 8.22999 28.7383 6.41399 24.0743 6.41199C14.4603 6.41199 6.63828 14.23 6.63628 23.84C6.63228 26.898 7.43428 29.904 8.96228 32.554L6.48828 41.586L15.7323 39.162C18.2903 40.554 21.1543 41.284 24.0663 41.284H24.0743C33.6843 41.284 41.5063 33.464 41.5103 23.854C41.5123 19.198 39.7003 14.82 36.4083 11.524Z" stroke="#009EA4" stroke-width="3" stroke-linecap="round" stroke-linejoin="round"/>
<g id="Group_2">
<path id="Path_2" d="M26.1914 27.1201L27.0034 26.3141C27.7494 25.5741 28.9294 25.4801 29.7894 26.0841C30.6214 26.6681 31.3734 27.1921 32.0734 27.6801C33.1854 28.4521 33.3194 30.0361 32.3614 30.9921L31.6434 31.7101" stroke="#009EA4" stroke-width="3" stroke-linecap="round" stroke-linejoin="round"/>
<path id="Path_3" d="M16.2891 16.358L17.0071 15.64C17.9631 14.684 19.5471 14.818 20.3191 15.928C20.8051 16.628 21.3291 17.38 21.9151 18.212C22.5191 19.072 22.4271 20.252 21.6851 20.998L20.8791 21.81" stroke="#009EA4" stroke-width="3" stroke-linecap="round" stroke-linejoin="round"/>
<path id="Path_4" d="M31.6434 31.71C28.6814 34.658 23.7034 32.154 19.7734 28.222" stroke="#009EA4" stroke-width="3" stroke-linecap="round" stroke-linejoin="round"/>
<path id="Path_5" d="M19.7761 28.228C15.8461 24.296 13.3421 19.32 16.2901 16.358" stroke="#009EA4" stroke-width="3" stroke-linecap="round" stroke-linejoin="round"/>
<path id="Path_6" d="M20.8789 21.8101C21.5169 22.8161 22.3349 23.8121 23.2589 24.7361L23.2629 24.7401C24.1869 25.6641 25.1829 26.4821 26.1889 27.1201" stroke="#009EA4" stroke-width="3" stroke-linecap="round" stroke-linejoin="round"/>
</g>
</g>
</svg>
